<?xml version="1.0" encoding="UTF-8" standalone="no"?>
<svg
   xmlns:dc="http://purl.org/dc/elements/1.1/"
   xmlns:cc="http://creativecommons.org/ns#"
   xmlns:rdf="http://www.w3.org/1999/02/22-rdf-syntax-ns#"
   xmlns:svg="http://www.w3.org/2000/svg"
   xmlns="http://www.w3.org/2000/svg"
   xmlns:sodipodi="http://sodipodi.sourceforge.net/DTD/sodipodi-0.dtd"
   xmlns:inkscape="http://www.inkscape.org/namespaces/inkscape"
   width="1600px"
   height="1200px"
   viewBox="0 0 1600 1200"
   version="1.1"
   id="svg67"
   sodipodi:docname="Waimakariri.svg"
   inkscape:version="0.92.3 (2405546, 2018-03-11)">
  <metadata
     id="metadata73">
    <rdf:RDF>
      <cc:Work
         rdf:about="">
        <dc:format>image/svg+xml</dc:format>
        <dc:type
           rdf:resource="http://purl.org/dc/dcmitype/StillImage" />
        <dc:title>Waimakariri</dc:title>
      </cc:Work>
    </rdf:RDF>
  </metadata>
  <defs
     id="defs71" />
  <sodipodi:namedview
     pagecolor="#ffffff"
     bordercolor="#666666"
     borderopacity="1"
     objecttolerance="10"
     gridtolerance="10"
     guidetolerance="10"
     inkscape:pageopacity="0"
     inkscape:pageshadow="2"
     inkscape:window-width="1366"
     inkscape:window-height="711"
     id="namedview69"
     showgrid="false"
     inkscape:zoom="0.176875"
     inkscape:cx="800"
     inkscape:cy="1052.2968"
     inkscape:window-x="0"
     inkscape:window-y="31"
     inkscape:window-maximized="1"
     inkscape:current-layer="Shape" />
  <!-- Generator: Sketch 55.2 (78181) - https://sketchapp.com -->
  <title
     id="title2">Waimakariri</title>
  <desc
     id="desc4">Created with Sketch.</desc>
  <g
     id="Patterns"
     transform="rotate(180,840.64604,-10.576841)"
     style="fill:none;fill-rule:evenodd;stroke:none;stroke-width:1">
    <g
       style="fill-rule:nonzero"
       id="Shape"
       transform="translate(-414,-1.20141)">
      <path
         style="fill:#eff3f0"
         inkscape:connector-curvature="0"
         id="path10"
         d="m 2011.685,1111.4002 c 118.5528,96.0022 118.64,253.5503 40.8661,388.4435 -77.7739,134.8932 -209.7816,259.0587 -301.8732,372.7823 -92.0916,113.7236 -262.3045,142.9407 -388.4516,40.7889 -126.147,-102.1519 -145.8059,-284.7523 -40.866,-388.4435 104.9399,-103.6911 189.6088,-260.0461 301.8731,-372.7823 112.2644,-112.7361 269.8988,-136.791 388.4516,-40.7889 z" />
      <path
         style="fill:#e0436b"
         inkscape:connector-curvature="0"
         id="path14"
         transform="rotate(39,909,1413)"
         d="M 909.23562,1480 C 947.81643,1480 976,1450.0943 976,1413.2037 c 0,-36.8905 -32.71564,-71.3577 -66.76438,-66.7962 -34.04875,4.5615 -71.90354,26.4666 -66.76439,66.7962 5.13916,40.3297 28.18357,66.7963 66.76439,66.7963 z" />
      <path
         style="fill:#e0436b"
         inkscape:connector-curvature="0"
         id="path16"
         transform="rotate(39,491,459)"
         d="M 491.15473,503 C 516.49139,503 535,483.36043 535,459.1338 535,434.90716 513.5151,412.27198 491.15473,415.26759 468.79436,418.26321 443.9345,432.64866 447.30947,459.1338 450.68443,485.61893 465.81808,503 491.15473,503 Z" />
      <path
         style="fill:#e0436b"
         inkscape:connector-curvature="0"
         id="path18"
         transform="rotate(156,1010,1396)"
         d="m 1009.992,1417.9595 c 12.1163,0.7376 20.8946,-8.6861 21.9385,-21.876 1.0439,-13.19 -9.8222,-23.7051 -21.9385,-21.8761 -12.11632,1.829 -21.03299,9.3333 -21.93852,21.8761 -0.90552,12.5427 9.8222,21.1385 21.93852,21.876 z" />
      <path
         style="fill:#7252a4"
         inkscape:connector-curvature="0"
         id="path26"
         transform="rotate(39,1390.5,1548)"
         d="m 1409.3267,1651 c 41.8753,0 67.2629,-62.9754 73.1458,-113.7202 5.8829,-50.7447 -38.2402,-97.0713 -92.2363,-91.8814 -53.9961,5.1898 -92.2362,41.1367 -92.2362,91.8814 0,50.7448 69.4513,113.7202 111.3267,113.7202 z" />
      <path
         style="fill:#f0c933"
         inkscape:connector-curvature="0"
         id="path28"
         d="m 676.95612,1172.3334 c 72.0207,65.9564 174.61816,51.4807 247.92666,-25.7026 73.3085,-77.1833 58.60932,-197.94328 -26.40587,-247.85276 -85.01518,-49.90946 -178.7602,-48.13457 -247.92666,25.70266 -69.16641,73.83718 -45.61482,181.8964 26.40587,247.8527 z" />
      <path
         style="fill:#f0c933"
         inkscape:connector-curvature="0"
         id="path30"
         transform="rotate(39,1877,1111)"
         d="m 1876.9755,1177.8768 c 36.8997,2.2461 63.6335,-26.4533 66.8127,-66.6226 3.1792,-40.1694 -29.913,-72.1928 -66.8127,-66.6227 -36.8996,5.5701 -64.0549,28.4244 -66.8126,66.6227 -2.7577,38.1983 29.913,64.3765 66.8126,66.6226 z" />
      <path
         style="fill:#f0c933"
         inkscape:connector-curvature="0"
         id="path32"
         transform="rotate(39,1003,1236)"
         d="m 1002.992,1257.9595 c 12.1163,0.7376 20.8946,-8.6861 21.9385,-21.876 1.0439,-13.19 -9.8222,-23.7051 -21.9385,-21.8761 -12.11632,1.829 -21.03299,9.3333 -21.93852,21.8761 -0.90552,12.5427 9.8222,21.1385 21.93852,21.876 z" />
      <path
         style="fill:#f0c933"
         inkscape:connector-curvature="0"
         id="path34"
         transform="rotate(39,1918,1205)"
         d="m 1917.992,1226.9595 c 12.1163,0.7376 20.8946,-8.6861 21.9385,-21.876 1.0439,-13.19 -9.8222,-23.7051 -21.9385,-21.8761 -12.1163,1.829 -21.033,9.3333 -21.9385,21.8761 -0.9055,12.5427 9.8222,21.1385 21.9385,21.876 z" />
      <path
         style="fill:#f0c933"
         inkscape:connector-curvature="0"
         id="path36"
         transform="rotate(39,1030,1190)"
         d="m 1029.996,1200.9798 c 6.0581,0.3687 10.4473,-4.3431 10.9692,-10.9381 0.522,-6.5949 -4.9111,-11.8525 -10.9692,-10.938 -6.0582,0.9145 -10.5165,4.6667 -10.9693,10.938 -0.4527,6.2714 4.9111,10.5693 10.9693,10.9381 z" />
      <path
         style="fill:#453264"
         inkscape:connector-curvature="0"
         id="path40"
         transform="rotate(39,555,859)"
         d="m 554.99197,880.95954 c 12.11629,0.73752 20.89458,-8.68615 21.93848,-21.87609 1.04391,-13.18994 -9.82219,-23.70508 -21.93848,-21.87609 -12.11629,1.829 -21.03296,9.33337 -21.93849,21.87609 -0.90552,12.54273 9.8222,21.13857 21.93849,21.87609 z" />
      <path
         style="fill:#453264"
         inkscape:connector-curvature="0"
         id="path42"
         transform="rotate(39,1811,1362)"
         d="m 1810.992,1383.9595 c 12.1163,0.7376 20.8946,-8.6861 21.9385,-21.876 1.0439,-13.19 -9.8222,-23.7051 -21.9385,-21.8761 -12.1163,1.829 -21.033,9.3333 -21.9385,21.8761 -0.9055,12.5427 9.8222,21.1385 21.9385,21.876 z" />
      <path
         style="fill:#0f90d1"
         inkscape:connector-curvature="0"
         id="path48"
         transform="rotate(39,524.28499,1520.406)"
         d="M 523.5,1795 C 660.75,1795 780.49219,1672.326 798,1521 815.50781,1369.674 684.19531,1231.5234 523.5,1247 362.80469,1262.4766 249,1369.674 249,1521 c 0,151.326 137.25,274 274.5,274 z" />
      <path
         style="fill:#0f90d1"
         inkscape:connector-curvature="0"
         id="path50"
         transform="rotate(39,1669.7474,1044.5)"
         d="m 1667.5,668 c 111.2854,0 183.6641,89.29687 201.5,201.5 17.8359,112.20312 0,243.2266 0,350 0,106.7734 -83.0859,201.5 -201.5,201.5 -118.4141,0 -213.39,-94.5156 -201.5,-201.5 11.89,-106.9844 -11.89,-234.52344 0,-350 11.89,-115.47656 90.2146,-201.5 201.5,-201.5 z" />
      <path
         style="fill:#c4c8d4"
         inkscape:connector-curvature="0"
         id="path54"
         transform="rotate(39,349,1205)"
         d="m 348.90946,1452.5439 c 136.58363,8.3139 235.53891,-97.9166 247.30655,-246.6032 C 607.98365,1057.2541 485.49309,938.71975 348.90946,959.33752 212.32583,979.95529 111.81066,1064.55 101.60291,1205.9407 91.395169,1347.3314 212.32583,1444.23 348.90946,1452.5439 Z" />
      <path
         style="fill:#c4c8d4"
         inkscape:connector-curvature="0"
         id="path56"
         transform="rotate(39,2080,1590)"
         d="m 2079.9095,1837.5439 c 136.5836,8.3139 235.5389,-97.9166 247.3065,-246.6032 11.7677,-148.6866 -110.7229,-267.2209 -247.3065,-246.6032 -136.5837,20.6178 -237.0988,105.2125 -247.3066,246.6032 -10.2077,141.3907 110.7229,238.2893 247.3066,246.6032 z" />
      <path
         style="fill:#eff3f0"
         inkscape:connector-curvature="0"
         id="path58"
         transform="rotate(39,1872,605)"
         d="M 1872.15,637.66282 C 1889.5812,634.4981 1905,622.9637 1905,604.83141 1905,586.69912 1890.2926,572 1872.15,572 c -18.1425,0 -29.9753,16.57777 -32.8499,32.83141 -2.8747,16.25364 15.4188,35.99613 32.8499,32.83141 z" />
      <g
         id="g116"
         transform="translate(-28.268551,-5.6537102)">
        <path
           d="m 1271.507,391.15903 c 176.5983,161.72783 428.1708,126.23438 607.9249,-63.02039 179.7542,-189.25473 143.7096,-485.36232 -64.7514,-607.74303 -208.4611,-122.38075 -438.3273,-118.02993 -607.9251,63.02036 -169.5976,181.050209 -111.8467,446.01502 64.7516,607.74306 z"
           id="path6"
           inkscape:connector-curvature="0"
           style="fill:#eff3f0" />
        <path
           d="m 1938.3406,574 c 106.9219,-19.375 201.5,-89.99077 201.5,-201 0,-111.00924 -90.2146,-201 -201.5,-201 -111.2854,0 -183.8672,101.49219 -201.5,201 -17.6328,99.50781 94.5782,220.375 201.5,201 z"
           transform="rotate(39,1937.4203,374.03214)"
           id="path8"
           inkscape:connector-curvature="0"
           style="fill:#eff3f0" />
        <path
           d="m 733.40032,118.46354 c 94.53252,76.55093 222.89894,59.23056 296.06118,-31.117283 73.1622,-90.3478301 61.357,-239.674107 -31.11729,-296.061167 -92.47431,-56.38705 -228.67067,-77.85006 -296.06117,31.11729 -67.3905,108.967347 -63.41524,219.510237 31.11728,296.06116 z"
           id="path12"
           inkscape:connector-curvature="0"
           style="fill:#e0436b" />
        <path
           d="m 1887.5972,-36.399302 c 49.6732,40.2245864 117.1397,31.1050334 155.602,-16.391952 38.4623,-47.496976 32.2763,-125.983356 -16.3177,-155.609836 -48.594,-29.62641 -120.1708,-40.89091 -155.602,16.39202 -35.4312,57.28293 -33.3555,115.385245 16.3177,155.609768 z"
           id="path20"
           inkscape:connector-curvature="0"
           style="fill:#7252a4" />
        <path
           d="m 1089.3877,-172.53152 c 19.6903,15.94487 46.4338,12.32991 61.6801,-6.49772 15.2463,-18.82764 12.7942,-49.93936 -6.4683,-61.68317 -19.2624,-11.74381 -47.6352,-16.20903 -61.68,6.49773 -14.0448,22.70674 -13.222,45.73829 6.4682,61.68316 z"
           id="path22"
           inkscape:connector-curvature="0"
           style="fill:#7252a4" />
        <path
           d="m 1030.4294,-270.00295 c 8.9501,7.2477 21.1062,5.60453 28.0364,-2.95348 6.9301,-8.55802 5.8155,-22.69974 -2.9402,-28.03783 -8.7556,-5.33809 -21.6523,-7.36771 -28.0363,2.95356 -6.3841,10.32119 -6.01,20.79012 2.9401,28.03775 z"
           id="path24"
           inkscape:connector-curvature="0"
           style="fill:#7252a4" />
        <path
           d="m 1707.2686,-281.24381 c 27.2629,24.96727 66.1001,19.4878 93.8502,-9.72892 27.7501,-29.21672 22.1856,-74.92918 -9.9962,-93.82211 -32.1818,-18.89287 -67.6681,-18.22119 -93.8502,9.72899 -26.1821,27.95018 -17.2667,68.85483 9.9962,93.82204 z"
           id="path38"
           inkscape:connector-curvature="0"
           style="fill:#453264" />
        <path
           d="m 1646.5825,-175.67971 c -6.1579,10.46084 -1.7466,22.56063 9.5318,29.47886 11.2784,6.91823 25.5805,2.01024 29.4516,-9.61581 3.871,-11.62605 1.2327,-22.9778 -9.5319,-29.47888 -10.7645,-6.50109 -23.2937,-0.84506 -29.4515,9.61583 z"
           id="path44"
           inkscape:connector-curvature="0"
           style="fill:#453264" />
        <path
           d="m 2012.4311,-152.94346 c 27.263,24.96727 66.1001,19.4878 93.8502,-9.72891 27.7501,-29.21672 22.1857,-74.92918 -9.9962,-93.82211 -32.1818,-18.89288 -67.668,-18.2212 -93.8501,9.72898 -26.1821,27.95018 -17.2667,68.85483 9.9961,93.82204 z"
           id="path46"
           inkscape:connector-curvature="0"
           style="fill:#0f90d1" />
        <path
           d="m 1334.9366,5.0066899 c 36.8252,33.7243621 89.2844,26.3230641 126.7677,-13.1413683 37.4833,-39.4644316 29.9671,-101.2103116 -13.5023,-126.7298016 -43.4694,-25.51948 -91.4024,-24.61226 -126.7678,13.14131 -35.3654,37.753568 -23.3229,93.00549 13.5024,126.7298599 z"
           id="path52"
           inkscape:connector-curvature="0"
           style="fill:#c4c8d4" />
        <path
           d="m 1591.1692,460.51159 c 10.5643,-1.91802 19.9091,-8.90856 19.9091,-19.89783 0,-10.98926 -8.9136,-19.89782 -19.9091,-19.89782 -10.9955,0 -18.1669,10.04713 -19.9091,19.89782 -1.7422,9.85069 9.3448,21.81584 19.9091,19.89783 z"
           transform="rotate(39,1591.0783,440.71594)"
           id="path60"
           inkscape:connector-curvature="0"
           style="fill:#eff3f0" />
      </g>
      <path
         style="fill:#6759ae"
         inkscape:connector-curvature="0"
         id="path62"
         d="m 170.91725,467.46467 c 86.485,70.03418 99.821,196.91799 29.7869,283.40297 -70.0342,86.48499 -162.491901,180.0035 -220.262101,272.00106 -57.7703,91.9976 -205.426599,110.272 -283.402999,29.7869 -77.9764,-80.48516 -107.88651,-186.95796 -29.7869,-283.40299 78.0997,-96.44502 143.5195,-177.23178 220.2622,-272.00108 76.742599,-94.76931 196.917899,-99.82103 283.4029,-29.78686 z" />
    </g>
  </g>
</svg>
