<?xml version="1.0" encoding="UTF-8" standalone="no"?>
<svg
   xmlns:dc="http://purl.org/dc/elements/1.1/"
   xmlns:cc="http://creativecommons.org/ns#"
   xmlns:rdf="http://www.w3.org/1999/02/22-rdf-syntax-ns#"
   xmlns:svg="http://www.w3.org/2000/svg"
   xmlns="http://www.w3.org/2000/svg"
   xmlns:sodipodi="http://sodipodi.sourceforge.net/DTD/sodipodi-0.dtd"
   xmlns:inkscape="http://www.inkscape.org/namespaces/inkscape"
   width="1600px"
   height="1200px"
   viewBox="0 0 1600 1200"
   version="1.1"
   id="svg67"
   sodipodi:docname="Waimakariri2.svg"
   inkscape:version="0.92.3 (2405546, 2018-03-11)">
  <metadata
     id="metadata73">
    <rdf:RDF>
      <cc:Work
         rdf:about="">
        <dc:format>image/svg+xml</dc:format>
        <dc:type
           rdf:resource="http://purl.org/dc/dcmitype/StillImage" />
        <dc:title>Waimakariri</dc:title>
      </cc:Work>
    </rdf:RDF>
  </metadata>
  <defs
     id="defs71" />
  <sodipodi:namedview
     pagecolor="#ffffff"
     bordercolor="#666666"
     borderopacity="1"
     objecttolerance="10"
     gridtolerance="10"
     guidetolerance="10"
     inkscape:pageopacity="0"
     inkscape:pageshadow="2"
     inkscape:window-width="1366"
     inkscape:window-height="711"
     id="namedview69"
     showgrid="false"
     inkscape:zoom="0.176875"
     inkscape:cx="800"
     inkscape:cy="826.14841"
     inkscape:window-x="0"
     inkscape:window-y="31"
     inkscape:window-maximized="1"
     inkscape:current-layer="svg67" />
  <!-- Generator: Sketch 55.2 (78181) - https://sketchapp.com -->
  <title
     id="title2">Waimakariri</title>
  <desc
     id="desc4">Created with Sketch.</desc>
  <g
     id="Patterns"
     transform="matrix(0.85357241,0,0,0.81567043,-1126.1035,668.39136)"
     style="fill:none;fill-rule:evenodd;stroke:none;stroke-width:1">
    <g
       id="Waimakariri"
       style="fill-rule:nonzero">
      <g
         transform="translate(-414,-380)"
         id="Shape">
        <path
           d="m 1074.8365,1477.1988 c 239.0213,14.5492 412.1931,-171.3541 432.7864,-431.5556 20.5934,-260.20155 -193.7651,-467.63673 -432.7864,-431.55564 -239.02139,36.0811 -414.92294,184.12183 -432.78649,431.55564 -17.86355,247.4337 193.7651,417.0062 432.78649,431.5556 z"
           transform="rotate(39,1074.9949,1043.9969)"
           id="path6"
           inkscape:connector-curvature="0"
           style="fill:#eff3f0" />
        <path
           d="m 1938.3406,574 c 106.9219,-19.375 201.5,-89.99077 201.5,-201 0,-111.00924 -90.2146,-201 -201.5,-201 -111.2854,0 -183.8672,101.49219 -201.5,201 -17.6328,99.50781 94.5782,220.375 201.5,201 z"
           transform="rotate(39,1937.4203,374.03214)"
           id="path8"
           inkscape:connector-curvature="0"
           style="fill:#eff3f0" />
        <path
           d="m 1838.9193,1004 c 152.549,0 251.765,122.383 276.2143,276.1594 24.4494,153.7764 0,333.3463 0,479.6812 0,146.335 -113.8934,276.1594 -276.2143,276.1594 -162.3209,0 -292.5129,-129.5354 -276.2143,-276.1594 16.2987,-146.624 -16.2986,-321.4185 0,-479.6812 C 1579.0037,1121.8967 1686.3704,1004 1838.9193,1004 Z"
           transform="rotate(39,1842,1520)"
           id="path10"
           inkscape:connector-curvature="0"
           style="fill:#eff3f0" />
        <path
           d="m 709.98574,821.28409 c 121.64062,0 210.5,-94.24406 210.5,-210.5 0,-116.25594 -103.14844,-224.875 -210.5,-210.5 -107.35156,14.375 -226.70312,83.40625 -210.5,210.5 16.20312,127.09375 88.85937,210.5 210.5,210.5 z"
           transform="rotate(39,709.24287,610.14204)"
           id="path12"
           inkscape:connector-curvature="0"
           style="fill:#e0436b" />
        <path
           d="M 909.23562,1480 C 947.81643,1480 976,1450.0943 976,1413.2037 c 0,-36.8905 -32.71564,-71.3577 -66.76438,-66.7962 -34.04875,4.5615 -71.90354,26.4666 -66.76439,66.7962 5.13916,40.3297 28.18357,66.7963 66.76439,66.7963 z"
           transform="rotate(39,909,1413)"
           id="path14"
           inkscape:connector-curvature="0"
           style="fill:#e0436b" />
        <path
           d="M 491.15473,503 C 516.49139,503 535,483.36043 535,459.1338 535,434.90716 513.5151,412.27198 491.15473,415.26759 468.79436,418.26321 443.9345,432.64866 447.30947,459.1338 450.68443,485.61893 465.81808,503 491.15473,503 Z"
           transform="rotate(39,491,459)"
           id="path16"
           inkscape:connector-curvature="0"
           style="fill:#e0436b" />
        <path
           d="m 1009.992,1417.9595 c 12.1163,0.7376 20.8946,-8.6861 21.9385,-21.876 1.0439,-13.19 -9.8222,-23.7051 -21.9385,-21.8761 -12.11632,1.829 -21.03299,9.3333 -21.93852,21.8761 -0.90552,12.5427 9.8222,21.1385 21.93852,21.876 z"
           transform="rotate(156,1010,1396)"
           id="path18"
           inkscape:connector-curvature="0"
           style="fill:#e0436b" />
        <path
           d="M 1731.3903,610 C 1795.3078,610 1842,560.45473 1842,499.33753 c 0,-61.11719 -54.2005,-118.21959 -110.6097,-110.66247 -56.4091,7.55712 -119.1237,43.8477 -110.6096,110.66247 C 1629.2948,566.1523 1667.4729,610 1731.3903,610 Z"
           transform="rotate(39,1731,499)"
           id="path20"
           inkscape:connector-curvature="0"
           style="fill:#7252a4" />
        <path
           d="M 953.15473,787 C 978.49139,787 997,767.36043 997,743.1338 997,718.90716 975.5151,696.27198 953.15473,699.26759 930.79436,702.2632 905.9345,716.64866 909.30947,743.1338 912.68443,769.61893 927.81808,787 953.15473,787 Z"
           transform="rotate(39,953,743)"
           id="path22"
           inkscape:connector-curvature="0"
           style="fill:#7252a4" />
        <path
           d="m 1026.0703,786 c 11.5167,0 19.9297,-8.92708 19.9297,-19.93918 0,-11.01211 -9.7659,-21.30083 -19.9297,-19.93919 -10.1638,1.36165 -21.4637,7.90049 -19.9296,19.93919 1.534,12.03869 8.413,19.93918 19.9296,19.93918 z"
           transform="rotate(39,1026,766)"
           id="path24"
           inkscape:connector-curvature="0"
           style="fill:#7252a4" />
        <path
           d="m 1409.3267,1651 c 41.8753,0 67.2629,-62.9754 73.1458,-113.7202 5.8829,-50.7447 -38.2402,-97.0713 -92.2363,-91.8814 -53.9961,5.1898 -92.2362,41.1367 -92.2362,91.8814 0,50.7448 69.4513,113.7202 111.3267,113.7202 z"
           transform="rotate(39,1390.5,1548)"
           id="path26"
           inkscape:connector-curvature="0"
           style="fill:#7252a4" />
        <path
           d="m 872.93029,1245.6683 c 97.47826,5.9336 168.10161,-69.8828 176.50001,-176 8.3984,-106.1172 -79.02175,-190.71486 -176.50001,-176.00002 -97.47825,14.71485 -169.21484,75.08985 -176.5,176.00002 -7.28515,100.9101 79.02175,170.0664 176.5,176 z"
           transform="rotate(39,872.99491,1068.9969)"
           id="path28"
           inkscape:connector-curvature="0"
           style="fill:#f0c933" />
        <path
           d="m 1876.9755,1177.8768 c 36.8997,2.2461 63.6335,-26.4533 66.8127,-66.6226 3.1792,-40.1694 -29.913,-72.1928 -66.8127,-66.6227 -36.8996,5.5701 -64.0549,28.4244 -66.8126,66.6227 -2.7577,38.1983 29.913,64.3765 66.8126,66.6226 z"
           transform="rotate(39,1877,1111)"
           id="path30"
           inkscape:connector-curvature="0"
           style="fill:#f0c933" />
        <path
           d="m 1002.992,1257.9595 c 12.1163,0.7376 20.8946,-8.6861 21.9385,-21.876 1.0439,-13.19 -9.8222,-23.7051 -21.9385,-21.8761 -12.11632,1.829 -21.03299,9.3333 -21.93852,21.8761 -0.90552,12.5427 9.8222,21.1385 21.93852,21.876 z"
           transform="rotate(39,1003,1236)"
           id="path32"
           inkscape:connector-curvature="0"
           style="fill:#f0c933" />
        <path
           d="m 1917.992,1226.9595 c 12.1163,0.7376 20.8946,-8.6861 21.9385,-21.876 1.0439,-13.19 -9.8222,-23.7051 -21.9385,-21.8761 -12.1163,1.829 -21.033,9.3333 -21.9385,21.8761 -0.9055,12.5427 9.8222,21.1385 21.9385,21.876 z"
           transform="rotate(39,1918,1205)"
           id="path34"
           inkscape:connector-curvature="0"
           style="fill:#f0c933" />
        <path
           d="m 1029.996,1200.9798 c 6.0581,0.3687 10.4473,-4.3431 10.9692,-10.9381 0.522,-6.5949 -4.9111,-11.8525 -10.9692,-10.938 -6.0582,0.9145 -10.5165,4.6667 -10.9693,10.938 -0.4527,6.2714 4.9111,10.5693 10.9693,10.9381 z"
           transform="rotate(39,1030,1190)"
           id="path36"
           inkscape:connector-curvature="0"
           style="fill:#f0c933" />
        <path
           d="m 1330.9755,954.87678 c 36.8997,2.24609 63.6335,-26.45328 66.8127,-66.62263 3.1792,-40.16936 -29.913,-72.19277 -66.8127,-66.62264 -36.8996,5.57012 -64.0549,28.42434 -66.8126,66.62264 -2.7577,38.1983 29.913,64.37654 66.8126,66.62263 z"
           transform="rotate(39,1331,888)"
           id="path38"
           inkscape:connector-curvature="0"
           style="fill:#453264" />
        <path
           d="m 554.99197,880.95954 c 12.11629,0.73752 20.89458,-8.68615 21.93848,-21.87609 1.04391,-13.18994 -9.82219,-23.70508 -21.93848,-21.87609 -12.11629,1.829 -21.03296,9.33337 -21.93849,21.87609 -0.90552,12.54273 9.8222,21.13857 21.93849,21.87609 z"
           transform="rotate(39,555,859)"
           id="path40"
           inkscape:connector-curvature="0"
           style="fill:#453264" />
        <path
           d="m 1810.992,1383.9595 c 12.1163,0.7376 20.8946,-8.6861 21.9385,-21.876 1.0439,-13.19 -9.8222,-23.7051 -21.9385,-21.8761 -12.1163,1.829 -21.033,9.3333 -21.9385,21.8761 -0.9055,12.5427 9.8222,21.1385 21.9385,21.876 z"
           transform="rotate(39,1811,1362)"
           id="path42"
           inkscape:connector-curvature="0"
           style="fill:#453264" />
        <path
           d="m 1292.992,1003.9595 c 12.1163,0.7376 20.8946,-8.68611 21.9385,-21.87605 1.0439,-13.18994 -9.8222,-23.70508 -21.9385,-21.87609 -12.1163,1.829 -21.033,9.33337 -21.9385,21.87609 -0.9055,12.54273 9.8222,21.13855 21.9385,21.87605 z"
           transform="rotate(117,1293,982)"
           id="path44"
           inkscape:connector-curvature="0"
           style="fill:#453264" />
        <path
           d="m 1997.9755,777.87678 c 36.8997,2.24609 63.6335,-26.45328 66.8127,-66.62263 3.1792,-40.16936 -29.913,-72.19277 -66.8127,-66.62264 -36.8996,5.57012 -64.0549,28.42434 -66.8126,66.62264 -2.7577,38.1983 29.913,64.37654 66.8126,66.62263 z"
           transform="rotate(39,1998,711)"
           id="path46"
           inkscape:connector-curvature="0"
           style="fill:#0f90d1" />
        <path
           d="M 523.5,1795 C 660.75,1795 780.49219,1672.326 798,1521 815.50781,1369.674 684.19531,1231.5234 523.5,1247 362.80469,1262.4766 249,1369.674 249,1521 c 0,151.326 137.25,274 274.5,274 z"
           transform="rotate(39,524.28499,1520.406)"
           id="path48"
           inkscape:connector-curvature="0"
           style="fill:#0f90d1" />
        <path
           d="m 1667.5,668 c 111.2854,0 183.6641,89.29687 201.5,201.5 17.8359,112.20312 0,243.2266 0,350 0,106.7734 -83.0859,201.5 -201.5,201.5 -118.4141,0 -213.39,-94.5156 -201.5,-201.5 11.89,-106.9844 -11.89,-234.52344 0,-350 11.89,-115.47656 90.2146,-201.5 201.5,-201.5 z"
           transform="rotate(39,1669.7474,1044.5)"
           id="path50"
           inkscape:connector-curvature="0"
           style="fill:#0f90d1" />
        <path
           d="m 1527.467,748.83357 c 49.842,3.03389 85.9527,-35.73167 90.2469,-89.99028 4.2942,-54.25861 -40.4049,-97.5141 -90.2469,-89.99028 -49.842,7.52382 -86.522,38.39407 -90.247,89.99028 -3.725,51.59621 40.405,86.95638 90.247,89.99028 z"
           transform="rotate(39,1527.5,658.5)"
           id="path52"
           inkscape:connector-curvature="0"
           style="fill:#c4c8d4" />
        <path
           d="m 348.90946,1452.5439 c 136.58363,8.3139 235.53891,-97.9166 247.30655,-246.6032 C 607.98365,1057.2541 485.49309,938.71975 348.90946,959.33752 212.32583,979.95529 111.81066,1064.55 101.60291,1205.9407 91.395169,1347.3314 212.32583,1444.23 348.90946,1452.5439 Z"
           transform="rotate(39,349,1205)"
           id="path54"
           inkscape:connector-curvature="0"
           style="fill:#c4c8d4" />
        <path
           d="m 2079.9095,1837.5439 c 136.5836,8.3139 235.5389,-97.9166 247.3065,-246.6032 11.7677,-148.6866 -110.7229,-267.2209 -247.3065,-246.6032 -136.5837,20.6178 -237.0988,105.2125 -247.3066,246.6032 -10.2077,141.3907 110.7229,238.2893 247.3066,246.6032 z"
           transform="rotate(39,2080,1590)"
           id="path56"
           inkscape:connector-curvature="0"
           style="fill:#c4c8d4" />
        <path
           d="M 1872.15,637.66282 C 1889.5812,634.4981 1905,622.9637 1905,604.83141 1905,586.69912 1890.2926,572 1872.15,572 c -18.1425,0 -29.9753,16.57777 -32.8499,32.83141 -2.8747,16.25364 15.4188,35.99613 32.8499,32.83141 z"
           transform="rotate(39,1872,605)"
           id="path58"
           inkscape:connector-curvature="0"
           style="fill:#eff3f0" />
        <path
           d="m 1591.1692,460.51159 c 10.5643,-1.91802 19.9091,-8.90856 19.9091,-19.89783 0,-10.98926 -8.9136,-19.89782 -19.9091,-19.89782 -10.9955,0 -18.1669,10.04713 -19.9091,19.89782 -1.7422,9.85069 9.3448,21.81584 19.9091,19.89783 z"
           transform="rotate(39,1591.0783,440.71594)"
           id="path60"
           inkscape:connector-curvature="0"
           style="fill:#eff3f0" />
        <path
           d="m 1251.5,44 c 111.2854,0 201.5,90.21462 201.5,201.5 0,111.28538 -13,242.14844 0,350 13,107.85156 -90.25,214.97656 -201.5,201.5 C 1140.25,783.52344 1050,719.60156 1050,595.5 c 0,-124.10156 0,-228.05469 0,-350 C 1050,123.55469 1140.2146,44 1251.5,44 Z"
           transform="rotate(39,1252.055,421.07564)"
           id="path62"
           inkscape:connector-curvature="0"
           style="fill:#6759ae" />
      </g>
    </g>
  </g>
  <g
     style="fill:none;fill-rule:evenodd;stroke:none;stroke-width:1"
     transform="matrix(0,-0.86367086,0.83053572,0,1382.7298,646.97634)"
     id="g240">
    <g
       style="fill-rule:nonzero"
       id="g238">
      <g
         id="g236"
         transform="translate(-414,-380)">
        <path
           style="fill:#eff3f0"
           inkscape:connector-curvature="0"
           id="path178"
           transform="rotate(39,1074.9949,1043.9969)"
           d="m 1074.8365,1477.1988 c 239.0213,14.5492 412.1931,-171.3541 432.7864,-431.5556 20.5934,-260.20155 -193.7651,-467.63673 -432.7864,-431.55564 -239.02139,36.0811 -414.92294,184.12183 -432.78649,431.55564 -17.86355,247.4337 193.7651,417.0062 432.78649,431.5556 z" />
        <path
           style="fill:#eff3f0"
           inkscape:connector-curvature="0"
           id="path180"
           transform="rotate(39,1937.4203,374.03214)"
           d="m 1938.3406,574 c 106.9219,-19.375 201.5,-89.99077 201.5,-201 0,-111.00924 -90.2146,-201 -201.5,-201 -111.2854,0 -183.8672,101.49219 -201.5,201 -17.6328,99.50781 94.5782,220.375 201.5,201 z" />
        <path
           style="fill:#eff3f0"
           inkscape:connector-curvature="0"
           id="path182"
           transform="rotate(39,1842,1520)"
           d="m 1838.9193,1004 c 152.549,0 251.765,122.383 276.2143,276.1594 24.4494,153.7764 0,333.3463 0,479.6812 0,146.335 -113.8934,276.1594 -276.2143,276.1594 -162.3209,0 -292.5129,-129.5354 -276.2143,-276.1594 16.2987,-146.624 -16.2986,-321.4185 0,-479.6812 C 1579.0037,1121.8967 1686.3704,1004 1838.9193,1004 Z" />
        <path
           style="fill:#e0436b"
           inkscape:connector-curvature="0"
           id="path184"
           transform="rotate(39,709.24287,610.14204)"
           d="m 709.98574,821.28409 c 121.64062,0 210.5,-94.24406 210.5,-210.5 0,-116.25594 -103.14844,-224.875 -210.5,-210.5 -107.35156,14.375 -226.70312,83.40625 -210.5,210.5 16.20312,127.09375 88.85937,210.5 210.5,210.5 z" />
        <path
           style="fill:#e0436b"
           inkscape:connector-curvature="0"
           id="path186"
           transform="rotate(39,909,1413)"
           d="M 909.23562,1480 C 947.81643,1480 976,1450.0943 976,1413.2037 c 0,-36.8905 -32.71564,-71.3577 -66.76438,-66.7962 -34.04875,4.5615 -71.90354,26.4666 -66.76439,66.7962 5.13916,40.3297 28.18357,66.7963 66.76439,66.7963 z" />
        <path
           style="fill:#e0436b"
           inkscape:connector-curvature="0"
           id="path188"
           transform="rotate(39,491,459)"
           d="M 491.15473,503 C 516.49139,503 535,483.36043 535,459.1338 535,434.90716 513.5151,412.27198 491.15473,415.26759 468.79436,418.26321 443.9345,432.64866 447.30947,459.1338 450.68443,485.61893 465.81808,503 491.15473,503 Z" />
        <path
           style="fill:#e0436b"
           inkscape:connector-curvature="0"
           id="path190"
           transform="rotate(156,1010,1396)"
           d="m 1009.992,1417.9595 c 12.1163,0.7376 20.8946,-8.6861 21.9385,-21.876 1.0439,-13.19 -9.8222,-23.7051 -21.9385,-21.8761 -12.11632,1.829 -21.03299,9.3333 -21.93852,21.8761 -0.90552,12.5427 9.8222,21.1385 21.93852,21.876 z" />
        <path
           style="fill:#7252a4"
           inkscape:connector-curvature="0"
           id="path192"
           transform="rotate(39,1731,499)"
           d="M 1731.3903,610 C 1795.3078,610 1842,560.45473 1842,499.33753 c 0,-61.11719 -54.2005,-118.21959 -110.6097,-110.66247 -56.4091,7.55712 -119.1237,43.8477 -110.6096,110.66247 C 1629.2948,566.1523 1667.4729,610 1731.3903,610 Z" />
        <path
           style="fill:#7252a4"
           inkscape:connector-curvature="0"
           id="path194"
           transform="rotate(39,953,743)"
           d="M 953.15473,787 C 978.49139,787 997,767.36043 997,743.1338 997,718.90716 975.5151,696.27198 953.15473,699.26759 930.79436,702.2632 905.9345,716.64866 909.30947,743.1338 912.68443,769.61893 927.81808,787 953.15473,787 Z" />
        <path
           style="fill:#7252a4"
           inkscape:connector-curvature="0"
           id="path196"
           transform="rotate(39,1026,766)"
           d="m 1026.0703,786 c 11.5167,0 19.9297,-8.92708 19.9297,-19.93918 0,-11.01211 -9.7659,-21.30083 -19.9297,-19.93919 -10.1638,1.36165 -21.4637,7.90049 -19.9296,19.93919 1.534,12.03869 8.413,19.93918 19.9296,19.93918 z" />
        <path
           style="fill:#7252a4"
           inkscape:connector-curvature="0"
           id="path198"
           transform="rotate(39,1390.5,1548)"
           d="m 1409.3267,1651 c 41.8753,0 67.2629,-62.9754 73.1458,-113.7202 5.8829,-50.7447 -38.2402,-97.0713 -92.2363,-91.8814 -53.9961,5.1898 -92.2362,41.1367 -92.2362,91.8814 0,50.7448 69.4513,113.7202 111.3267,113.7202 z" />
        <path
           style="fill:#f0c933"
           inkscape:connector-curvature="0"
           id="path200"
           transform="rotate(39,872.99491,1068.9969)"
           d="m 872.93029,1245.6683 c 97.47826,5.9336 168.10161,-69.8828 176.50001,-176 8.3984,-106.1172 -79.02175,-190.71486 -176.50001,-176.00002 -97.47825,14.71485 -169.21484,75.08985 -176.5,176.00002 -7.28515,100.9101 79.02175,170.0664 176.5,176 z" />
        <path
           style="fill:#f0c933"
           inkscape:connector-curvature="0"
           id="path202"
           transform="rotate(39,1877,1111)"
           d="m 1876.9755,1177.8768 c 36.8997,2.2461 63.6335,-26.4533 66.8127,-66.6226 3.1792,-40.1694 -29.913,-72.1928 -66.8127,-66.6227 -36.8996,5.5701 -64.0549,28.4244 -66.8126,66.6227 -2.7577,38.1983 29.913,64.3765 66.8126,66.6226 z" />
        <path
           style="fill:#f0c933"
           inkscape:connector-curvature="0"
           id="path204"
           transform="rotate(39,1003,1236)"
           d="m 1002.992,1257.9595 c 12.1163,0.7376 20.8946,-8.6861 21.9385,-21.876 1.0439,-13.19 -9.8222,-23.7051 -21.9385,-21.8761 -12.11632,1.829 -21.03299,9.3333 -21.93852,21.8761 -0.90552,12.5427 9.8222,21.1385 21.93852,21.876 z" />
        <path
           style="fill:#f0c933"
           inkscape:connector-curvature="0"
           id="path206"
           transform="rotate(39,1918,1205)"
           d="m 1917.992,1226.9595 c 12.1163,0.7376 20.8946,-8.6861 21.9385,-21.876 1.0439,-13.19 -9.8222,-23.7051 -21.9385,-21.8761 -12.1163,1.829 -21.033,9.3333 -21.9385,21.8761 -0.9055,12.5427 9.8222,21.1385 21.9385,21.876 z" />
        <path
           style="fill:#f0c933"
           inkscape:connector-curvature="0"
           id="path208"
           transform="rotate(39,1030,1190)"
           d="m 1029.996,1200.9798 c 6.0581,0.3687 10.4473,-4.3431 10.9692,-10.9381 0.522,-6.5949 -4.9111,-11.8525 -10.9692,-10.938 -6.0582,0.9145 -10.5165,4.6667 -10.9693,10.938 -0.4527,6.2714 4.9111,10.5693 10.9693,10.9381 z" />
        <path
           style="fill:#453264"
           inkscape:connector-curvature="0"
           id="path210"
           transform="rotate(39,1331,888)"
           d="m 1330.9755,954.87678 c 36.8997,2.24609 63.6335,-26.45328 66.8127,-66.62263 3.1792,-40.16936 -29.913,-72.19277 -66.8127,-66.62264 -36.8996,5.57012 -64.0549,28.42434 -66.8126,66.62264 -2.7577,38.1983 29.913,64.37654 66.8126,66.62263 z" />
        <path
           style="fill:#453264"
           inkscape:connector-curvature="0"
           id="path212"
           transform="rotate(39,555,859)"
           d="m 554.99197,880.95954 c 12.11629,0.73752 20.89458,-8.68615 21.93848,-21.87609 1.04391,-13.18994 -9.82219,-23.70508 -21.93848,-21.87609 -12.11629,1.829 -21.03296,9.33337 -21.93849,21.87609 -0.90552,12.54273 9.8222,21.13857 21.93849,21.87609 z" />
        <path
           style="fill:#453264"
           inkscape:connector-curvature="0"
           id="path214"
           transform="rotate(39,1811,1362)"
           d="m 1810.992,1383.9595 c 12.1163,0.7376 20.8946,-8.6861 21.9385,-21.876 1.0439,-13.19 -9.8222,-23.7051 -21.9385,-21.8761 -12.1163,1.829 -21.033,9.3333 -21.9385,21.8761 -0.9055,12.5427 9.8222,21.1385 21.9385,21.876 z" />
        <path
           style="fill:#453264"
           inkscape:connector-curvature="0"
           id="path216"
           transform="rotate(117,1293,982)"
           d="m 1292.992,1003.9595 c 12.1163,0.7376 20.8946,-8.68611 21.9385,-21.87605 1.0439,-13.18994 -9.8222,-23.70508 -21.9385,-21.87609 -12.1163,1.829 -21.033,9.33337 -21.9385,21.87609 -0.9055,12.54273 9.8222,21.13855 21.9385,21.87605 z" />
        <path
           style="fill:#0f90d1"
           inkscape:connector-curvature="0"
           id="path218"
           transform="rotate(39,1998,711)"
           d="m 1997.9755,777.87678 c 36.8997,2.24609 63.6335,-26.45328 66.8127,-66.62263 3.1792,-40.16936 -29.913,-72.19277 -66.8127,-66.62264 -36.8996,5.57012 -64.0549,28.42434 -66.8126,66.62264 -2.7577,38.1983 29.913,64.37654 66.8126,66.62263 z" />
        <path
           style="fill:#0f90d1"
           inkscape:connector-curvature="0"
           id="path220"
           transform="rotate(39,524.28499,1520.406)"
           d="M 523.5,1795 C 660.75,1795 780.49219,1672.326 798,1521 815.50781,1369.674 684.19531,1231.5234 523.5,1247 362.80469,1262.4766 249,1369.674 249,1521 c 0,151.326 137.25,274 274.5,274 z" />
        <path
           style="fill:#0f90d1"
           inkscape:connector-curvature="0"
           id="path222"
           transform="rotate(39,1669.7474,1044.5)"
           d="m 1667.5,668 c 111.2854,0 183.6641,89.29687 201.5,201.5 17.8359,112.20312 0,243.2266 0,350 0,106.7734 -83.0859,201.5 -201.5,201.5 -118.4141,0 -213.39,-94.5156 -201.5,-201.5 11.89,-106.9844 -11.89,-234.52344 0,-350 11.89,-115.47656 90.2146,-201.5 201.5,-201.5 z" />
        <path
           style="fill:#c4c8d4"
           inkscape:connector-curvature="0"
           id="path224"
           transform="rotate(39,1527.5,658.5)"
           d="m 1527.467,748.83357 c 49.842,3.03389 85.9527,-35.73167 90.2469,-89.99028 4.2942,-54.25861 -40.4049,-97.5141 -90.2469,-89.99028 -49.842,7.52382 -86.522,38.39407 -90.247,89.99028 -3.725,51.59621 40.405,86.95638 90.247,89.99028 z" />
        <path
           style="fill:#c4c8d4"
           inkscape:connector-curvature="0"
           id="path226"
           transform="rotate(39,349,1205)"
           d="m 348.90946,1452.5439 c 136.58363,8.3139 235.53891,-97.9166 247.30655,-246.6032 C 607.98365,1057.2541 485.49309,938.71975 348.90946,959.33752 212.32583,979.95529 111.81066,1064.55 101.60291,1205.9407 91.395169,1347.3314 212.32583,1444.23 348.90946,1452.5439 Z" />
        <path
           style="fill:#c4c8d4"
           inkscape:connector-curvature="0"
           id="path228"
           transform="rotate(39,2080,1590)"
           d="m 2079.9095,1837.5439 c 136.5836,8.3139 235.5389,-97.9166 247.3065,-246.6032 11.7677,-148.6866 -110.7229,-267.2209 -247.3065,-246.6032 -136.5837,20.6178 -237.0988,105.2125 -247.3066,246.6032 -10.2077,141.3907 110.7229,238.2893 247.3066,246.6032 z" />
        <path
           style="fill:#eff3f0"
           inkscape:connector-curvature="0"
           id="path230"
           transform="rotate(39,1872,605)"
           d="M 1872.15,637.66282 C 1889.5812,634.4981 1905,622.9637 1905,604.83141 1905,586.69912 1890.2926,572 1872.15,572 c -18.1425,0 -29.9753,16.57777 -32.8499,32.83141 -2.8747,16.25364 15.4188,35.99613 32.8499,32.83141 z" />
        <path
           style="fill:#eff3f0"
           inkscape:connector-curvature="0"
           id="path232"
           transform="rotate(39,1591.0783,440.71594)"
           d="m 1591.1692,460.51159 c 10.5643,-1.91802 19.9091,-8.90856 19.9091,-19.89783 0,-10.98926 -8.9136,-19.89782 -19.9091,-19.89782 -10.9955,0 -18.1669,10.04713 -19.9091,19.89782 -1.7422,9.85069 9.3448,21.81584 19.9091,19.89783 z" />
        <path
           style="fill:#6759ae"
           inkscape:connector-curvature="0"
           id="path234"
           transform="rotate(39,1252.055,421.07564)"
           d="m 1251.5,44 c 111.2854,0 201.5,90.21462 201.5,201.5 0,111.28538 -13,242.14844 0,350 13,107.85156 -90.25,214.97656 -201.5,201.5 C 1140.25,783.52344 1050,719.60156 1050,595.5 c 0,-124.10156 0,-228.05469 0,-350 C 1050,123.55469 1140.2146,44 1251.5,44 Z" />
      </g>
    </g>
  </g>
</svg>
